<svg width="24" height="24" viewBox="0 0 24 24" fill="none" xmlns="http://www.w3.org/2000/svg">
<circle cx="12" cy="12" r="12" fill="#EBEBEB"/>
<path d="M17.4545 10.7273C17.4545 15.1818 11.7273 19 11.7273 19C11.7273 19 6 15.1818 6 10.7273C6 9.20831 6.60341 7.75155 7.67748 6.67748C8.75155 5.60341 10.2083 5 11.7273 5C13.2462 5 14.703 5.60341 15.7771 6.67748C16.8511 7.75155 17.4545 9.20831 17.4545 10.7273Z" stroke="#0783B6" stroke-linecap="round" stroke-linejoin="round"/>
<path d="M11.7275 12.6363C12.7818 12.6363 13.6365 11.7816 13.6365 10.7272C13.6365 9.67284 12.7818 8.81812 11.7275 8.81812C10.6731 8.81812 9.81836 9.67284 9.81836 10.7272C9.81836 11.7816 10.6731 12.6363 11.7275 12.6363Z" stroke="#0783B6" stroke-linecap="round" stroke-linejoin="round"/>
</svg>
