<svg width="24" height="24" viewBox="0 0 24 24" fill="none" xmlns="http://www.w3.org/2000/svg">
<circle cx="12" cy="12" r="12" fill="#EBEBEB"/>
<path d="M16.5709 17.4856V16.3428C16.5709 15.7366 16.3301 15.1552 15.9015 14.7266C15.4728 14.2979 14.8914 14.0571 14.2852 14.0571H9.7139C9.1077 14.0571 8.52633 14.2979 8.09768 14.7266C7.66903 15.1552 7.42822 15.7366 7.42822 16.3428V17.4856" stroke="#0783B6" stroke-linecap="round" stroke-linejoin="round"/>
<path d="M12.0005 11.7715C13.2629 11.7715 14.2862 10.7482 14.2862 9.48587C14.2862 8.22353 13.2629 7.2002 12.0005 7.2002C10.7382 7.2002 9.71484 8.22353 9.71484 9.48587C9.71484 10.7482 10.7382 11.7715 12.0005 11.7715Z" stroke="#0783B6" stroke-linecap="round" stroke-linejoin="round"/>
<path d="M19.9994 17.4858V16.343C19.999 15.8365 19.8305 15.3446 19.5202 14.9443C19.2099 14.5441 18.7755 14.2582 18.2852 14.1316" stroke="#0783B6" stroke-linecap="round" stroke-linejoin="round"/>
<path d="M16 7.27441C16.4917 7.4003 16.9274 7.68624 17.2386 8.08715C17.5498 8.48806 17.7187 8.98114 17.7187 9.48866C17.7187 9.99618 17.5498 10.4893 17.2386 10.8902C16.9274 11.2911 16.4917 11.577 16 11.7029" stroke="#0783B6" stroke-linecap="round" stroke-linejoin="round"/>
<path d="M4.0001 17.4856V16.3175C4.00048 15.7998 4.16904 15.297 4.47931 14.8879C4.78959 14.4787 5.224 14.1865 5.71436 14.0571" stroke="#0783B6" stroke-linecap="round" stroke-linejoin="round"/>
<path d="M8.11914 11.7029C7.62748 11.577 7.19171 11.2911 6.88051 10.8901C6.56932 10.4892 6.4004 9.99615 6.4004 9.48863C6.4004 8.98112 6.56932 8.48804 6.88051 8.08712C7.19171 7.68621 7.62748 7.40027 8.11914 7.27439" stroke="#0783B6" stroke-linecap="round" stroke-linejoin="round"/>
</svg>
