<svg width="24" height="24" viewBox="0 0 24 24" fill="none" xmlns="http://www.w3.org/2000/svg">
<circle cx="12" cy="12" r="12" fill="#EBEBEB"/>
<path d="M17.3707 18.7427V17.3713C17.3707 16.6438 17.0818 15.9462 16.5674 15.4318C16.053 14.9174 15.3554 14.6284 14.6279 14.6284H9.14225C8.4148 14.6284 7.71715 14.9174 7.20277 15.4318C6.68839 15.9462 6.39941 16.6438 6.39941 17.3713V18.7427" stroke="#0783B6" stroke-linecap="round" stroke-linejoin="round"/>
<path d="M11.8854 11.8856C13.4002 11.8856 14.6282 10.6576 14.6282 9.14274C14.6282 7.62791 13.4002 6.3999 11.8854 6.3999C10.3706 6.3999 9.14258 7.62791 9.14258 9.14274C9.14258 10.6576 10.3706 11.8856 11.8854 11.8856Z" stroke="#0783B6" stroke-linecap="round" stroke-linejoin="round"/>
</svg>
